<mxfile host="app.diagrams.net" agent="Mozilla/5.0 (Macintosh; Intel Mac OS X 10_15_7) AppleWebKit/537.36 (KHTML, like Gecko) Chrome/134.0.0.0 Safari/537.36" version="26.2.5">
  <diagram name="Page-1" id="vaXz6sst5wuGx2WxMUYf">
    <mxGraphModel dx="1082" dy="482" grid="1" gridSize="10" guides="1" tooltips="1" connect="1" arrows="1" fold="1" page="1" pageScale="1" pageWidth="850" pageHeight="1100" math="0" shadow="0">
      <root>
        <mxCell id="0" />
        <mxCell id="1" parent="0" />
        <mxCell id="VoyF88MsmUBsrJN5zg1o-39" value="" style="group" parent="1" vertex="1" connectable="0">
          <mxGeometry x="710" y="190" width="510" height="490" as="geometry" />
        </mxCell>
        <mxCell id="VoyF88MsmUBsrJN5zg1o-34" value="Services" style="rounded=1;whiteSpace=wrap;html=1;fillColor=#dae8fc;dashed=1;dashPattern=8 8;align=center;labelPosition=center;verticalLabelPosition=top;verticalAlign=bottom;strokeColor=#6c8ebf;opacity=30;" parent="VoyF88MsmUBsrJN5zg1o-39" vertex="1">
          <mxGeometry width="510" height="490" as="geometry" />
        </mxCell>
        <mxCell id="VoyF88MsmUBsrJN5zg1o-54" style="edgeStyle=orthogonalEdgeStyle;rounded=0;orthogonalLoop=1;jettySize=auto;html=1;" parent="VoyF88MsmUBsrJN5zg1o-39" source="VoyF88MsmUBsrJN5zg1o-27" target="VoyF88MsmUBsrJN5zg1o-9" edge="1">
          <mxGeometry relative="1" as="geometry" />
        </mxCell>
        <mxCell id="VoyF88MsmUBsrJN5zg1o-58" style="edgeStyle=orthogonalEdgeStyle;rounded=0;orthogonalLoop=1;jettySize=auto;html=1;entryX=1;entryY=0.5;entryDx=0;entryDy=0;" parent="VoyF88MsmUBsrJN5zg1o-39" source="VoyF88MsmUBsrJN5zg1o-9" target="VoyF88MsmUBsrJN5zg1o-28" edge="1">
          <mxGeometry relative="1" as="geometry">
            <Array as="points">
              <mxPoint x="415" y="170" />
              <mxPoint x="336" y="170" />
              <mxPoint x="336" y="83" />
            </Array>
          </mxGeometry>
        </mxCell>
        <mxCell id="VoyF88MsmUBsrJN5zg1o-9" value="&lt;span&gt;Transaction&amp;nbsp;&lt;span style=&quot;color: light-dark(rgb(0, 0, 0), rgb(255, 255, 255));&quot;&gt;Service&lt;/span&gt;&lt;/span&gt;&lt;div&gt;&lt;span style=&quot;color: light-dark(rgb(0, 0, 0), rgb(255, 255, 255));&quot;&gt;&lt;font style=&quot;font-size: 10px;&quot;&gt;(FastAPI)&lt;/font&gt;&lt;/span&gt;&lt;/div&gt;" style="html=1;verticalLabelPosition=bottom;align=center;labelBackgroundColor=none;verticalAlign=top;strokeWidth=2;strokeColor=#0080F0;shadow=0;dashed=0;shape=mxgraph.ios7.icons.cube;fillColor=none;" parent="VoyF88MsmUBsrJN5zg1o-39" vertex="1">
          <mxGeometry x="400" y="230" width="30" height="30" as="geometry" />
        </mxCell>
        <mxCell id="VoyF88MsmUBsrJN5zg1o-52" style="edgeStyle=orthogonalEdgeStyle;rounded=0;orthogonalLoop=1;jettySize=auto;html=1;" parent="VoyF88MsmUBsrJN5zg1o-39" source="VoyF88MsmUBsrJN5zg1o-27" target="VoyF88MsmUBsrJN5zg1o-10" edge="1">
          <mxGeometry relative="1" as="geometry" />
        </mxCell>
        <mxCell id="VoyF88MsmUBsrJN5zg1o-55" style="edgeStyle=orthogonalEdgeStyle;rounded=0;orthogonalLoop=1;jettySize=auto;html=1;entryX=0;entryY=0.5;entryDx=0;entryDy=0;" parent="VoyF88MsmUBsrJN5zg1o-39" source="VoyF88MsmUBsrJN5zg1o-10" target="VoyF88MsmUBsrJN5zg1o-28" edge="1">
          <mxGeometry relative="1" as="geometry">
            <Array as="points">
              <mxPoint x="75" y="170" />
              <mxPoint x="160" y="170" />
              <mxPoint x="160" y="83" />
            </Array>
          </mxGeometry>
        </mxCell>
        <mxCell id="VoyF88MsmUBsrJN5zg1o-10" value="Customer Service&lt;div&gt;&lt;font style=&quot;font-size: 10px;&quot;&gt;(Django)&lt;/font&gt;&lt;/div&gt;" style="html=1;verticalLabelPosition=bottom;align=center;labelBackgroundColor=none;verticalAlign=top;strokeWidth=2;strokeColor=#0080F0;shadow=0;dashed=0;shape=mxgraph.ios7.icons.cube;fillColor=none;" parent="VoyF88MsmUBsrJN5zg1o-39" vertex="1">
          <mxGeometry x="60" y="230" width="30" height="30" as="geometry" />
        </mxCell>
        <mxCell id="VoyF88MsmUBsrJN5zg1o-60" style="edgeStyle=orthogonalEdgeStyle;rounded=0;orthogonalLoop=1;jettySize=auto;html=1;" parent="VoyF88MsmUBsrJN5zg1o-39" source="VoyF88MsmUBsrJN5zg1o-10" target="VoyF88MsmUBsrJN5zg1o-12" edge="1">
          <mxGeometry relative="1" as="geometry">
            <Array as="points">
              <mxPoint x="75" y="405" />
            </Array>
          </mxGeometry>
        </mxCell>
        <mxCell id="VoyF88MsmUBsrJN5zg1o-12" value="Database&lt;div&gt;&lt;font style=&quot;font-size: 10px;&quot;&gt;(Postgres)&lt;/font&gt;&lt;/div&gt;" style="html=1;verticalLabelPosition=bottom;align=center;labelBackgroundColor=none;verticalAlign=top;strokeWidth=2;strokeColor=#0080F0;shadow=0;dashed=0;shape=mxgraph.ios7.icons.data;fillColor=none;" parent="VoyF88MsmUBsrJN5zg1o-39" vertex="1">
          <mxGeometry x="158" y="392" width="24" height="29.099999999999998" as="geometry" />
        </mxCell>
        <mxCell id="VoyF88MsmUBsrJN5zg1o-61" style="edgeStyle=orthogonalEdgeStyle;rounded=0;orthogonalLoop=1;jettySize=auto;html=1;" parent="VoyF88MsmUBsrJN5zg1o-39" source="VoyF88MsmUBsrJN5zg1o-9" target="VoyF88MsmUBsrJN5zg1o-13" edge="1">
          <mxGeometry relative="1" as="geometry">
            <Array as="points">
              <mxPoint x="415" y="410" />
            </Array>
          </mxGeometry>
        </mxCell>
        <mxCell id="VoyF88MsmUBsrJN5zg1o-13" value="Cache&lt;div&gt;&lt;font style=&quot;font-size: 10px;&quot;&gt;(Redis)&lt;/font&gt;&lt;/div&gt;" style="html=1;verticalLabelPosition=bottom;align=center;labelBackgroundColor=none;verticalAlign=top;strokeWidth=2;strokeColor=#0080F0;shadow=0;dashed=0;shape=mxgraph.ios7.icons.data;fillColor=none;" parent="VoyF88MsmUBsrJN5zg1o-39" vertex="1">
          <mxGeometry x="318" y="390" width="24" height="29.099999999999998" as="geometry" />
        </mxCell>
        <mxCell id="VoyF88MsmUBsrJN5zg1o-27" value="Message Broker&lt;div&gt;&lt;font style=&quot;font-size: 10px;&quot;&gt;(RabbitMQ)&lt;/font&gt;&lt;/div&gt;" style="sketch=0;outlineConnect=0;fontColor=#232F3E;gradientColor=none;fillColor=#0080F0;strokeColor=none;dashed=0;verticalLabelPosition=bottom;verticalAlign=top;align=center;html=1;fontSize=12;fontStyle=0;aspect=fixed;pointerEvents=1;shape=mxgraph.aws4.mq_broker;" parent="VoyF88MsmUBsrJN5zg1o-39" vertex="1">
          <mxGeometry x="232.9" y="225.45" width="44.21" height="39.1" as="geometry" />
        </mxCell>
        <mxCell id="VoyF88MsmUBsrJN5zg1o-28" value="&lt;span style=&quot;font-weight: normal;&quot;&gt;&lt;font style=&quot;font-size: 12px; color: rgb(0, 0, 0);&quot;&gt;Secret Manager&lt;/font&gt;&lt;/span&gt;&lt;div&gt;&lt;span style=&quot;font-weight: normal;&quot;&gt;&lt;font style=&quot;color: rgb(0, 0, 0); font-size: 10px;&quot;&gt;(Vault)&lt;/font&gt;&lt;/span&gt;&lt;/div&gt;" style="sketch=0;html=1;verticalAlign=top;labelPosition=center;verticalLabelPosition=bottom;align=center;spacingTop=-6;fontSize=11;fontStyle=1;fontColor=#999999;shape=image;aspect=fixed;imageAspect=0;image=data:image/svg+xml,PHN2ZyB4bWxucz0iaHR0cDovL3d3dy53My5vcmcvMjAwMC9zdmciIGlkPSJzdmc1MzkzNyIgdmVyc2lvbj0iMS4xIiB2aWV3Qm94PSIwIDAgMTc1LjE2MDYzIDEwNC4yNzczNSIgaGVpZ2h0PSIxMDQuMjc3MzVtbSIgd2lkdGg9IjE3NS4xNjA2M21tIj4mI3hhOyAgPHBhdGggZD0ibSAxMjguNTY5MSwzNC4xMTUyMzYgdiAxMi45Nzg1MTYgbCAtMTIuMzM3ODksLTQuMzgwODYgLTIuNTA5NzcsNy4wNjgzNiAxMi41NDEwMiw0LjQ1MzEyNSAtOC41NjA1NSwxMS40MzE2NCA2LjAwMTk2LDQuNDk2MDk0IDguNTk5NjEsLTExLjQ4MDQ2OSA4LjQ5NDE0LDExLjQ2NDg0NCA2LjAyNzM0LC00LjQ2NDg0NCAtOC40NzI2NiwtMTEuNDMzNTkzIDEyLjY0MDYzLC00LjQ2Njc5NyAtMi41LC03LjA3MDMxMyAtMTIuNDIzODMsNC4zOTA2MjUgViAzNC4xMTUyMzYgWiBtIC00NC43NzY4NzIsMCB2IDEyLjk3ODUxNiBsIC0xMi4zMzc4OTEsLTQuMzgwODYgLTIuNTA5NzY1LDcuMDY4MzYgMTIuNTQxMDE1LDQuNDUzMTI1IC04LjU2MDU0NywxMS40MzE2NCA2LjAwMTk1Myw0LjQ5NjA5NCA4LjU5OTYxLC0xMS40ODA0NjkgOC40OTQxNCwxMS40NjQ4NDQgNi4wMjczNDcsLTQuNDY0ODQ0IC04LjQ3MjY1OSwtMTEuNDMzNTkzIDEyLjY0MDYyOSwtNC40NjY3OTcgLTIuNSwtNy4wNzAzMTMgLTEyLjQyMzgzMiw0LjM5MDYyNSBWIDM0LjExNTIzNiBaIG0gLTQ0Ljc3Njg1LDAgdiAxMi45Nzg1MTYgbCAtMTIuMzM3ODkxLC00LjM4MDg2IC0yLjUwOTc2NSw3LjA2ODM2IDEyLjU0MTAxNSw0LjQ1MzEyNSAtOC41NjA1NDcsMTEuNDMxNjQgNi4wMDE5NTMsNC40OTYwOTQgOC41OTk2MSwtMTEuNDgwNDY5IDguNDk0MTQsMTEuNDY0ODQ0IDYuMDI3MzQ0LC00LjQ2NDg0NCAtOC40NzI2NTYsLTExLjQzMzU5MyAxMi42NDA2MjUsLTQuNDY2Nzk3IC0yLjUsLTcuMDcwMzEzIC0xMi40MjM4MjgsNC4zOTA2MjUgViAzNC4xMTUyMzYgWiBNIDE3NS4xNjA2NCwxMGUtNyBWIDEwNC4yNzczNCBoIC0zNy4yNzY4MiBjIC0xLjIwODU3LDAgLTIuMDAyNDgsLTAuNjIzNTQgLTIuMDAyNDgsLTEuODY2MzQgdiAtOS45MjcyMzggYyAwLC0xLjE0ODI1IDAuNzE1OTYsLTEuNzA2NDIgMi4wMDI0OCwtMS43MDY0MiBoIDIzLjc3NjgyIFYgMTMuNSBoIC0yMy45NDQ5OCBjIC0xLjQwODU1LDAgLTEuOTUxNTEsLTAuNzUyMzE3IC0xLjk1MTUxLC0yLjA3NDQ4MiBWIDEuODQyNzI2IGMgMCwtMS4yNjU5NzEgMC42OTgwOCwtMS44NDI3MjUgMS45NTE1MSwtMS44NDI3MjUgeiBNIDAsMCB2IDEwNC4yNzczNSBoIDM3LjI3NjgxNCBjIDEuMjA4NTcxLDAgMi4wMDI0ODMsLTAuNjIzNTQgMi4wMDI0ODMsLTEuODY2MzQgdiAtOS45MjcyMzggYyAwLC0xLjE0ODI1IC0wLjcxNTk1NywtMS43MDY0MiAtMi4wMDI0ODMsLTEuNzA2NDIgSCAxMy41IFYgMTMuNDk5OTk5IGggMjMuOTQ0OTczIGMgMS40MDg1NTIsMCAxLjk1MTUxMSwtMC43NTIzMTcgMS45NTE1MTEsLTIuMDc0NDgyIFYgMS44NDI3MjUgQyAzOS4zOTY0ODQsMC41NzY3NTQgMzguNjk4NDEsMCAzNy40NDQ5NzMsMCBaIiBzdHlsZT0iY29sb3I6IzAwMDAwMDtvcGFjaXR5OjE7ZmlsbDojNDI4NWY0O2ZpbGwtb3BhY2l0eToxOy1pbmtzY2FwZS1zdHJva2U6bm9uZSIvPiYjeGE7PC9zdmc+;" parent="VoyF88MsmUBsrJN5zg1o-39" vertex="1">
          <mxGeometry x="230" y="70.00000000000003" width="42" height="25" as="geometry" />
        </mxCell>
        <mxCell id="VoyF88MsmUBsrJN5zg1o-66" style="edgeStyle=orthogonalEdgeStyle;rounded=0;orthogonalLoop=1;jettySize=auto;html=1;entryX=1.114;entryY=0.461;entryDx=0;entryDy=0;entryPerimeter=0;" parent="VoyF88MsmUBsrJN5zg1o-39" source="VoyF88MsmUBsrJN5zg1o-13" target="VoyF88MsmUBsrJN5zg1o-12" edge="1">
          <mxGeometry relative="1" as="geometry" />
        </mxCell>
        <mxCell id="VoyF88MsmUBsrJN5zg1o-44" style="edgeStyle=orthogonalEdgeStyle;rounded=0;orthogonalLoop=1;jettySize=auto;html=1;exitX=1;exitY=0.5;exitDx=0;exitDy=0;entryX=0;entryY=0.5;entryDx=0;entryDy=0;" parent="1" source="VoyF88MsmUBsrJN5zg1o-7" target="VoyF88MsmUBsrJN5zg1o-30" edge="1">
          <mxGeometry relative="1" as="geometry" />
        </mxCell>
        <mxCell id="VoyF88MsmUBsrJN5zg1o-45" value="" style="group" parent="1" vertex="1" connectable="0">
          <mxGeometry x="121" y="190" width="120" height="490" as="geometry" />
        </mxCell>
        <mxCell id="VoyF88MsmUBsrJN5zg1o-32" value="API Gateway" style="rounded=1;whiteSpace=wrap;html=1;fillColor=#fff2cc;dashed=1;dashPattern=8 8;align=center;labelPosition=center;verticalLabelPosition=top;verticalAlign=bottom;strokeColor=#d6b656;opacity=30;" parent="VoyF88MsmUBsrJN5zg1o-45" vertex="1">
          <mxGeometry width="120" height="490" as="geometry" />
        </mxCell>
        <mxCell id="VoyF88MsmUBsrJN5zg1o-7" value="&lt;font style=&quot;font-size: 12px; color: rgb(0, 0, 0); font-weight: normal;&quot;&gt;API Gateway&lt;/font&gt;&lt;div&gt;&lt;font style=&quot;color: rgb(0, 0, 0); font-weight: normal; font-size: 10px;&quot;&gt;(traefik)&lt;/font&gt;&lt;/div&gt;" style="sketch=0;html=1;verticalAlign=top;labelPosition=center;verticalLabelPosition=bottom;align=center;spacingTop=-6;fontSize=11;fontStyle=1;fontColor=#999999;shape=image;aspect=fixed;imageAspect=0;image=data:image/svg+xml,PHN2ZyB4bWxucz0iaHR0cDovL3d3dy53My5vcmcvMjAwMC9zdmciIGhlaWdodD0iMzY3LjgxODMyODg1NzQyMTkiIHZpZXdCb3g9IjcuMTA1NDI3MzU3NjAxMDAyZS0xNSAwIDM2Ni40MTAxODY3Njc1NzgxIDM2Ny44MTgzMjg4NTc0MjE5IiBwcmVzZXJ2ZUFzcGVjdFJhdGlvPSJ4TWlkWU1pZCBtZWV0IiB3aWR0aD0iMzY2LjQxMDE5Njc2NzU3OTEiIHZlcnNpb249IjEuMSIgaWQ9InN2Zzk4NyIgem9vbUFuZFBhbj0ibWFnbmlmeSI+JiN4YTsgIDxwYXRoIGQ9Im0gNDguMjUxOTYsMTExLjUzOTA2IGMgLTcuNjE4NjQsMmUtNCAtMTMuNzk0NzIsNi4xNzYyOCAtMTMuNzk0OTMsMTMuNzk0OTIgMi4xZS00LDcuNjE4NjQgNi4xNzYyOSwxMy43OTQ3MiAxMy43OTQ5MywxMy43OTQ5MiBoIDE0NS4xNDY5MiB2IC0yNy41ODk4NCB6IG0gMjM4LjYwODU5LDU3LjQ1MTE3IGggNjUuNzU0NjkgYyA3LjYxODY0LC0yLjFlLTQgMTMuNzk0NzEsLTYuMTc2MjggMTMuNzk0OTIsLTEzLjc5NDkyIC0yLjFlLTQsLTcuNjE4NjQgLTYuMTc2MjgsLTEzLjc5NDcxIC0xMy43OTQ5MiwtMTMuNzk0OTIgSCAyODQuODUwNiBaIE0gMTMuNzk0OTIsMTcwLjk3NDYxIEMgNi4xNzYyODAxLDE3MC45NzQ4MiAyLjEwMDkxOWUtNCwxNzcuMTUwODkgOS4xODk5MjFlLTgsMTg0Ljc2OTUzIC04LjY5OTA4MWUtNCwxOTIuMzg4OTMgNi4xNzU1MjAxLDE5OC41NjYxOSAxMy43OTQ5MiwxOTguNTY2NCBIIDE5My4zOTg4OCBWIDE3MC45NzQ2MSBaIE0gMjg0LjMwNzgsMjI3LjU2NjQgaCA2OC4zMDc0NCBjIDcuNjE4NjQsLTIuMWUtNCAxMy43OTQ3MSwtNi4xNzYyOCAxMy43OTQ5MiwtMTMuNzk0OTIgLTIuMWUtNCwtNy42MTg2NCAtNi4xNzYyOCwtMTMuNzk0NzEgLTEzLjc5NDkyLC0xMy43OTQ5MiBoIC02NS45MjE3OCB6IG0gLTIzNi4wNTU4NCwxLjY5NzI3IGMgLTcuNjE4NjQsMmUtNCAtMTMuNzk0NzIsNi4xNzYyOCAtMTMuNzk0OTMsMTMuNzk0OTIgMi4xZS00LDcuNjE4NjQgNi4xNzYyOSwxMy43OTQ3MiAxMy43OTQ5MywxMy43OTQ5MiBIIDE5My4zOTg4OCBWIDIyOS4yNjM2NyBaIE0gMTg5LjUyMTQ5LDAgYyAtMjQuNTc0MTEsMCAtNDkuMTY3MzcsMjAuMDU1MDcgLTU5LjQzNzUsNzUuMzczMDQgaCAzMC41ODAwNyBjIDQuNjE2MzMsLTI0LjE2MjA2IDE1LjM0ODk2LC00Ny41MjE0OCAyNy44NTM1MiwtNDcuNTIxNDggMTIuMTU4OCwwIDM5LjQ1ODk4LDU3LjQ1MDQ0IDM5LjQ1ODk4LDE2MC40MTQwNiAwLDY5LjkxNTEzIC0xOS41NzgwOSwxNTIuMTE1MjQgLTQxLjE3MTg3LDE1Mi4xMTUyMyAtMTUuMjY4ODEsMmUtNSAtMjEuMjE2NjgsLTI4LjMzMzU2IC0yNS40NDMzNiwtNDYuNzE4NzQgbCAtMzAuNDE0MDYsLTAuMDY4NCBjIDQuMjIwNzQsMjAuNTQwODcgMTYuOTA3NjgsNzQuMjI0NiA1Ny43MTI4OSw3NC4yMjQ2IDUzLjQzNjcyLDAgNjguOTEyMTEsLTExMS45OTMwNSA2OC45MTIxMSwtMTgwLjQ2Mjg5IEMgMjU3LjU3MjI3LDkzLjgwMDc2IDIzNi41ODM0LDAgMTg5LjUyMTQ5LDAgWiIgc3R5bGU9ImNvbG9yOiMwMDAwMDA7b3BhY2l0eToxO2ZpbGw6IzQyODVmNDtmaWxsLW9wYWNpdHk6MTtzdHJva2UtbGluZWNhcDpyb3VuZDstaW5rc2NhcGUtc3Ryb2tlOm5vbmUiLz4mI3hhOzwvc3ZnPg==;" parent="VoyF88MsmUBsrJN5zg1o-45" vertex="1">
          <mxGeometry x="39" y="224" width="42" height="42" as="geometry" />
        </mxCell>
        <mxCell id="VoyF88MsmUBsrJN5zg1o-46" value="" style="group" parent="1" vertex="1" connectable="0">
          <mxGeometry x="379.04" y="190" width="219.99999999999994" height="490" as="geometry" />
        </mxCell>
        <mxCell id="VoyF88MsmUBsrJN5zg1o-33" value="Customer Panel" style="rounded=1;whiteSpace=wrap;html=1;fillColor=#d5e8d4;dashed=1;dashPattern=8 8;align=center;labelPosition=center;verticalLabelPosition=top;verticalAlign=bottom;strokeColor=#82b366;opacity=30;" parent="VoyF88MsmUBsrJN5zg1o-46" vertex="1">
          <mxGeometry width="220" height="490" as="geometry" />
        </mxCell>
        <mxCell id="VoyF88MsmUBsrJN5zg1o-11" value="Customer Panel&lt;div&gt;&lt;font style=&quot;font-size: 10px;&quot;&gt;(Next)&lt;/font&gt;&lt;/div&gt;" style="sketch=0;outlineConnect=0;fontColor=#232F3E;gradientColor=none;fillColor=#0080F0;strokeColor=none;dashed=0;verticalLabelPosition=bottom;verticalAlign=top;align=center;html=1;fontSize=12;fontStyle=0;aspect=fixed;pointerEvents=1;shape=mxgraph.aws4.opensearch_dashboards;fillStyle=auto;strokeWidth=1;perimeterSpacing=1;" parent="VoyF88MsmUBsrJN5zg1o-46" vertex="1">
          <mxGeometry x="89.99999999999989" y="71" width="41.93" height="31.72" as="geometry" />
        </mxCell>
        <mxCell id="VoyF88MsmUBsrJN5zg1o-30" value="ELK Stack" style="editableCssRules=.*;html=1;shape=image;verticalLabelPosition=bottom;labelBackgroundColor=#ffffff;verticalAlign=top;aspect=fixed;imageAspect=0;image=data:image/svg+xml,PHN2ZyB4bWxucz0iaHR0cDovL3d3dy53My5vcmcvMjAwMC9zdmciIHhtbG5zOnY9Imh0dHBzOi8vdmVjdGEuaW8vbmFubyIgd2lkdGg9IjIwIiBoZWlnaHQ9IjEzLjUyOTk5OTczMjk3MTE5MSIgdmlld0JveD0iLTIuOTMyMDk3ODk3ODEyMDE0ZS05IC01LjI1ODAxNTA0MTgzNzk1NmUtMTUgMjAgMTMuNTI5OTk5NzMyOTcxMTkxIiBzdHlsZT0iY29sb3Itc2NoZW1lOiBsaWdodCBkYXJrOyI+JiN4YTsJPHN0eWxlIHR5cGU9InRleHQvY3NzIj4uc3QwIHsgZmlsbDogbGlnaHQtZGFyayhyZ2IoMCwgMTI4LCAyNDApLCByZ2IoNjYsIDEzMywgMjQ0KSk7IH0gLnN0MSB7IGZpbGw6IGxpZ2h0LWRhcmsocmdiKDAsIDEyOCwgMjQwKSwgcmdiKDY2LCAxMzMsIDI0NCkpOyB9IDwvc3R5bGU+JiN4YTsJPHBhdGggY2xhc3M9InN0MSIgZD0iTTguODMgMTAuNThoMi4zM3YyLjY0SDguODN6Ii8+JiN4YTsJPHBhdGggY2xhc3M9InN0MCIgZD0iTTE2LjQ4IDguNjFhLjU2LjU2IDAgMCAxLS40LS4xN0wxMiA0LjIxIDkuMjYgNy4xYS41Ny41NyAwIDAgMS0uNzYuMDVMNi40MiA1LjQ3bC0yLjIgMi45MmEuNTYuNTYgMCAwIDEtLjQ1LjIySDB2MS43MWEuNzUuNzUgMCAwIDAgLjc0Ljc1aDE4LjUyYS43NS43NSAwIDAgMCAuNzQtLjc1VjguNjF6Ii8+JiN4YTsJPHBhdGggY2xhc3M9InN0MSIgZD0iTTMuNSA3LjVsMi4zOC0zLjE2YS41NS41NSAwIDAgMSAuMzctLjIyLjYzLjYzIDAgMCAxIC40Mi4xMmwyLjEyIDEuNzIgMi44LTIuOTRhLjU0LjU0IDAgMCAxIC40LS4xN2gwYS41NC41NCAwIDAgMSAuNC4xN2w0LjMzIDQuNDhIMjBWLjc0YS43NC43NCAwIDAgMC0uNzQtLjc0SC43NEEuNzQuNzQgMCAwIDAgMCAuNzR2Ni44MXoiLz4mI3hhOwk8cmVjdCBjbGFzcz0ic3QwIiB4PSI2LjY3IiB5PSIxMi45MiIgd2lkdGg9IjYuNjciIGhlaWdodD0iLjYxIiByeD0iLjMiLz4mI3hhOzwvc3ZnPg==;imageBorder=none;" parent="VoyF88MsmUBsrJN5zg1o-46" vertex="1">
          <mxGeometry x="90" y="231" width="40" height="28.000000000000004" as="geometry" />
        </mxCell>
        <mxCell id="VoyF88MsmUBsrJN5zg1o-31" value="prometheus" style="editableCssRules=.*;html=1;shape=image;verticalLabelPosition=bottom;labelBackgroundColor=#ffffff;verticalAlign=top;aspect=fixed;imageAspect=0;image=data:image/svg+xml,PHN2ZyB4bWxucz0iaHR0cDovL3d3dy53My5vcmcvMjAwMC9zdmciIHhtbG5zOnY9Imh0dHBzOi8vdmVjdGEuaW8vbmFubyIgd2lkdGg9IjIwIiBoZWlnaHQ9IjEzLjUyOTk5OTczMjk3MTE5MSIgdmlld0JveD0iLTIuOTMyMDk3ODk3ODEyMDE0ZS05IC01LjI1ODAxNTA0MTgzNzk1NmUtMTUgMjAgMTMuNTI5OTk5NzMyOTcxMTkxIiBzdHlsZT0iY29sb3Itc2NoZW1lOiBsaWdodCBkYXJrOyI+JiN4YTsJPHN0eWxlIHR5cGU9InRleHQvY3NzIj4uc3QwIHsgZmlsbDogbGlnaHQtZGFyayhyZ2IoMCwgMTI4LCAyNDApLCByZ2IoNjYsIDEzMywgMjQ0KSk7IH0gLnN0MSB7IGZpbGw6IGxpZ2h0LWRhcmsocmdiKDAsIDEyOCwgMjQwKSwgcmdiKDY2LCAxMzMsIDI0NCkpOyB9IDwvc3R5bGU+JiN4YTsJPHBhdGggY2xhc3M9InN0MSIgZD0iTTguODMgMTAuNThoMi4zM3YyLjY0SDguODN6Ii8+JiN4YTsJPHBhdGggY2xhc3M9InN0MCIgZD0iTTE2LjQ4IDguNjFhLjU2LjU2IDAgMCAxLS40LS4xN0wxMiA0LjIxIDkuMjYgNy4xYS41Ny41NyAwIDAgMS0uNzYuMDVMNi40MiA1LjQ3bC0yLjIgMi45MmEuNTYuNTYgMCAwIDEtLjQ1LjIySDB2MS43MWEuNzUuNzUgMCAwIDAgLjc0Ljc1aDE4LjUyYS43NS43NSAwIDAgMCAuNzQtLjc1VjguNjF6Ii8+JiN4YTsJPHBhdGggY2xhc3M9InN0MSIgZD0iTTMuNSA3LjVsMi4zOC0zLjE2YS41NS41NSAwIDAgMSAuMzctLjIyLjYzLjYzIDAgMCAxIC40Mi4xMmwyLjEyIDEuNzIgMi44LTIuOTRhLjU0LjU0IDAgMCAxIC40LS4xN2gwYS41NC41NCAwIDAgMSAuNC4xN2w0LjMzIDQuNDhIMjBWLjc0YS43NC43NCAwIDAgMC0uNzQtLjc0SC43NEEuNzQuNzQgMCAwIDAgMCAuNzR2Ni44MXoiLz4mI3hhOwk8cmVjdCBjbGFzcz0ic3QwIiB4PSI2LjY3IiB5PSIxMi45MiIgd2lkdGg9IjYuNjciIGhlaWdodD0iLjYxIiByeD0iLjMiLz4mI3hhOzwvc3ZnPg==;imageBorder=none;" parent="VoyF88MsmUBsrJN5zg1o-46" vertex="1">
          <mxGeometry x="90" y="373" width="40" height="28.000000000000004" as="geometry" />
        </mxCell>
        <mxCell id="VoyF88MsmUBsrJN5zg1o-48" style="edgeStyle=orthogonalEdgeStyle;rounded=0;orthogonalLoop=1;jettySize=auto;html=1;exitX=1;exitY=0.25;exitDx=0;exitDy=0;" parent="1" source="VoyF88MsmUBsrJN5zg1o-7" target="VoyF88MsmUBsrJN5zg1o-11" edge="1">
          <mxGeometry relative="1" as="geometry">
            <Array as="points">
              <mxPoint x="320" y="425" />
              <mxPoint x="320" y="280" />
            </Array>
          </mxGeometry>
        </mxCell>
        <mxCell id="VoyF88MsmUBsrJN5zg1o-49" style="edgeStyle=orthogonalEdgeStyle;rounded=0;orthogonalLoop=1;jettySize=auto;html=1;exitX=1;exitY=0.75;exitDx=0;exitDy=0;entryX=0;entryY=0.5;entryDx=0;entryDy=0;" parent="1" source="VoyF88MsmUBsrJN5zg1o-7" target="VoyF88MsmUBsrJN5zg1o-31" edge="1">
          <mxGeometry relative="1" as="geometry">
            <Array as="points">
              <mxPoint x="320" y="445" />
              <mxPoint x="320" y="577" />
            </Array>
          </mxGeometry>
        </mxCell>
        <mxCell id="VoyF88MsmUBsrJN5zg1o-51" value="" style="group" parent="1" vertex="1" connectable="0">
          <mxGeometry x="1340" y="190" width="220" height="490" as="geometry" />
        </mxCell>
        <mxCell id="VoyF88MsmUBsrJN5zg1o-35" value="External Services" style="rounded=1;whiteSpace=wrap;html=1;fillColor=#e1d5e7;dashed=1;dashPattern=8 8;align=center;labelPosition=center;verticalLabelPosition=top;verticalAlign=bottom;strokeColor=#9673a6;opacity=30;" parent="VoyF88MsmUBsrJN5zg1o-51" vertex="1">
          <mxGeometry width="220" height="490" as="geometry" />
        </mxCell>
        <mxCell id="VoyF88MsmUBsrJN5zg1o-50" value="&lt;div&gt;&lt;br&gt;&lt;/div&gt;&lt;div&gt;&lt;br&gt;&lt;/div&gt;&lt;div&gt;&lt;br&gt;&lt;/div&gt;&lt;div&gt;&lt;br&gt;&lt;/div&gt;&lt;div&gt;&lt;br&gt;&lt;/div&gt;Blockchain" style="points=[];aspect=fixed;html=1;align=center;shadow=0;dashed=0;fillColor=light-dark(#0080F0,#4285F4);strokeColor=none;shape=mxgraph.alibaba_cloud.baas_blockchain_as_a_service;verticalAlign=middle;" parent="VoyF88MsmUBsrJN5zg1o-51" vertex="1">
          <mxGeometry x="88.40000000000009" y="221.3" width="43.199999999999996" height="47.400000000000006" as="geometry" />
        </mxCell>
        <mxCell id="VoyF88MsmUBsrJN5zg1o-65" style="edgeStyle=orthogonalEdgeStyle;rounded=0;orthogonalLoop=1;jettySize=auto;html=1;entryX=-0.045;entryY=0.494;entryDx=0;entryDy=0;entryPerimeter=0;" parent="1" source="VoyF88MsmUBsrJN5zg1o-9" target="VoyF88MsmUBsrJN5zg1o-50" edge="1">
          <mxGeometry relative="1" as="geometry" />
        </mxCell>
        <mxCell id="VoyF88MsmUBsrJN5zg1o-67" style="edgeStyle=orthogonalEdgeStyle;rounded=0;orthogonalLoop=1;jettySize=auto;html=1;entryX=0;entryY=0.5;entryDx=0;entryDy=0;" parent="1" source="VoyF88MsmUBsrJN5zg1o-31" target="VoyF88MsmUBsrJN5zg1o-34" edge="1">
          <mxGeometry relative="1" as="geometry" />
        </mxCell>
        <mxCell id="VoyF88MsmUBsrJN5zg1o-68" style="edgeStyle=orthogonalEdgeStyle;rounded=0;orthogonalLoop=1;jettySize=auto;html=1;entryX=0;entryY=0.5;entryDx=0;entryDy=0;" parent="1" source="VoyF88MsmUBsrJN5zg1o-30" target="VoyF88MsmUBsrJN5zg1o-34" edge="1">
          <mxGeometry relative="1" as="geometry" />
        </mxCell>
        <mxCell id="VoyF88MsmUBsrJN5zg1o-69" style="edgeStyle=orthogonalEdgeStyle;rounded=0;orthogonalLoop=1;jettySize=auto;html=1;" parent="1" source="VoyF88MsmUBsrJN5zg1o-11" target="VoyF88MsmUBsrJN5zg1o-10" edge="1">
          <mxGeometry relative="1" as="geometry" />
        </mxCell>
        <mxCell id="zeT_8nw4CAdic9VmRdX9-27" value="" style="group" vertex="1" connectable="0" parent="1">
          <mxGeometry x="1050" y="950" width="220" height="490" as="geometry" />
        </mxCell>
        <mxCell id="zeT_8nw4CAdic9VmRdX9-28" value="External Services" style="rounded=1;whiteSpace=wrap;html=1;fillColor=#e1d5e7;dashed=1;dashPattern=8 8;align=center;labelPosition=center;verticalLabelPosition=top;verticalAlign=bottom;strokeColor=#9673a6;opacity=30;" vertex="1" parent="zeT_8nw4CAdic9VmRdX9-27">
          <mxGeometry width="220" height="490" as="geometry" />
        </mxCell>
        <mxCell id="zeT_8nw4CAdic9VmRdX9-29" value="&lt;div&gt;&lt;br&gt;&lt;/div&gt;&lt;div&gt;&lt;br&gt;&lt;/div&gt;&lt;div&gt;&lt;br&gt;&lt;/div&gt;&lt;div&gt;&lt;br&gt;&lt;/div&gt;&lt;div&gt;&lt;br&gt;&lt;/div&gt;Blockchain" style="points=[];aspect=fixed;html=1;align=center;shadow=0;dashed=0;fillColor=light-dark(#0080F0,#4285F4);strokeColor=none;shape=mxgraph.alibaba_cloud.baas_blockchain_as_a_service;verticalAlign=middle;" vertex="1" parent="zeT_8nw4CAdic9VmRdX9-27">
          <mxGeometry x="88.40000000000009" y="221.3" width="43.199999999999996" height="47.400000000000006" as="geometry" />
        </mxCell>
        <mxCell id="zeT_8nw4CAdic9VmRdX9-36" style="edgeStyle=orthogonalEdgeStyle;rounded=0;orthogonalLoop=1;jettySize=auto;html=1;" edge="1" parent="1" source="zeT_8nw4CAdic9VmRdX9-10" target="zeT_8nw4CAdic9VmRdX9-28">
          <mxGeometry relative="1" as="geometry" />
        </mxCell>
        <mxCell id="zeT_8nw4CAdic9VmRdX9-37" value="" style="group" vertex="1" connectable="0" parent="1">
          <mxGeometry x="420" y="949.9999999999998" width="510" height="490" as="geometry" />
        </mxCell>
        <mxCell id="zeT_8nw4CAdic9VmRdX9-2" value="Services" style="rounded=1;whiteSpace=wrap;html=1;fillColor=#dae8fc;dashed=1;dashPattern=8 8;align=center;labelPosition=center;verticalLabelPosition=top;verticalAlign=bottom;strokeColor=#6c8ebf;opacity=30;" vertex="1" parent="zeT_8nw4CAdic9VmRdX9-37">
          <mxGeometry width="510" height="490" as="geometry" />
        </mxCell>
        <mxCell id="zeT_8nw4CAdic9VmRdX9-22" value="Customer Panel&lt;div&gt;&lt;font style=&quot;font-size: 10px;&quot;&gt;(Next)&lt;/font&gt;&lt;/div&gt;" style="sketch=0;outlineConnect=0;fontColor=#232F3E;gradientColor=none;fillColor=#0080F0;strokeColor=none;dashed=0;verticalLabelPosition=bottom;verticalAlign=top;align=center;html=1;fontSize=12;fontStyle=0;aspect=fixed;pointerEvents=1;shape=mxgraph.aws4.opensearch_dashboards;fillStyle=auto;strokeWidth=1;perimeterSpacing=1;" vertex="1" parent="zeT_8nw4CAdic9VmRdX9-37">
          <mxGeometry x="30.999999999999886" y="230.1400000000001" width="41.93" height="31.72" as="geometry" />
        </mxCell>
        <mxCell id="zeT_8nw4CAdic9VmRdX9-8" value="Customer Service&lt;div&gt;&lt;font style=&quot;font-size: 10px;&quot;&gt;(Django)&lt;/font&gt;&lt;/div&gt;" style="html=1;verticalLabelPosition=bottom;align=center;labelBackgroundColor=none;verticalAlign=top;strokeWidth=2;strokeColor=#0080F0;shadow=0;dashed=0;shape=mxgraph.ios7.icons.cube;fillColor=none;" vertex="1" parent="zeT_8nw4CAdic9VmRdX9-37">
          <mxGeometry x="231" y="231" width="30" height="30" as="geometry" />
        </mxCell>
        <mxCell id="zeT_8nw4CAdic9VmRdX9-10" value="Database&lt;div&gt;&lt;font style=&quot;font-size: 10px;&quot;&gt;(Postgres)&lt;/font&gt;&lt;/div&gt;" style="html=1;verticalLabelPosition=bottom;align=center;labelBackgroundColor=none;verticalAlign=top;strokeWidth=2;strokeColor=#0080F0;shadow=0;dashed=0;shape=mxgraph.ios7.icons.data;fillColor=none;" vertex="1" parent="zeT_8nw4CAdic9VmRdX9-37">
          <mxGeometry x="431" y="230.45000000000005" width="24" height="29.099999999999998" as="geometry" />
        </mxCell>
        <mxCell id="zeT_8nw4CAdic9VmRdX9-34" style="edgeStyle=orthogonalEdgeStyle;rounded=0;orthogonalLoop=1;jettySize=auto;html=1;entryX=0.096;entryY=0.568;entryDx=0;entryDy=0;entryPerimeter=0;" edge="1" parent="zeT_8nw4CAdic9VmRdX9-37">
          <mxGeometry relative="1" as="geometry">
            <mxPoint x="72.92999999999984" y="246.03999999999996" as="sourcePoint" />
            <mxPoint x="232.87999999999965" y="246.03999999999996" as="targetPoint" />
          </mxGeometry>
        </mxCell>
        <mxCell id="zeT_8nw4CAdic9VmRdX9-35" style="edgeStyle=orthogonalEdgeStyle;rounded=0;orthogonalLoop=1;jettySize=auto;html=1;entryX=-0.03;entryY=0.535;entryDx=0;entryDy=0;entryPerimeter=0;" edge="1" parent="zeT_8nw4CAdic9VmRdX9-37" source="zeT_8nw4CAdic9VmRdX9-8" target="zeT_8nw4CAdic9VmRdX9-10">
          <mxGeometry relative="1" as="geometry" />
        </mxCell>
        <mxCell id="zeT_8nw4CAdic9VmRdX9-39" style="edgeStyle=orthogonalEdgeStyle;rounded=0;orthogonalLoop=1;jettySize=auto;html=1;" edge="1" parent="1" source="zeT_8nw4CAdic9VmRdX9-38" target="zeT_8nw4CAdic9VmRdX9-22">
          <mxGeometry relative="1" as="geometry" />
        </mxCell>
        <mxCell id="zeT_8nw4CAdic9VmRdX9-38" value="" style="sketch=0;outlineConnect=0;fillColor=light-dark(#0080F0,#4285F4);strokeColor=#6c8ebf;dashed=0;verticalLabelPosition=bottom;verticalAlign=top;align=center;html=1;fontSize=12;fontStyle=0;aspect=fixed;pointerEvents=1;shape=mxgraph.aws4.user;" vertex="1" parent="1">
          <mxGeometry x="190" y="1179" width="34" height="34" as="geometry" />
        </mxCell>
      </root>
    </mxGraphModel>
  </diagram>
</mxfile>
